<svg width="24" height="25" viewBox="0 0 24 25" fill="none" xmlns="http://www.w3.org/2000/svg">
<path d="M21.593 7.70301C21.4791 7.28041 21.2565 6.89501 20.9474 6.58518C20.6382 6.27534 20.2533 6.05187 19.831 5.93701C18.265 5.50701 12 5.50001 12 5.50001C12 5.50001 5.73599 5.49301 4.16899 5.90401C3.74692 6.02415 3.36282 6.25078 3.05356 6.56214C2.7443 6.8735 2.52028 7.25913 2.40299 7.68201C1.98999 9.24801 1.98599 12.496 1.98599 12.496C1.98599 12.496 1.98199 15.76 2.39199 17.31C2.62199 18.167 3.29699 18.844 4.15499 19.075C5.73699 19.505 11.985 19.512 11.985 19.512C11.985 19.512 18.25 19.519 19.816 19.109C20.2385 18.9943 20.6237 18.7714 20.9336 18.4622C21.2436 18.153 21.4674 17.7682 21.583 17.346C21.997 15.781 22 12.534 22 12.534C22 12.534 22.02 9.26901 21.593 7.70301ZM9.99599 15.505L10.001 9.50501L15.208 12.51L9.99599 15.505Z" fill="black"/>
</svg>
